# xmcd CD database file
#
# Track frame offsets:
#	150
#	11045
#	26440
#	36265
#	49870
#	59210
#	70315
#	81135
#	93535
#	108082
#	117010
#	126895
#
# Disc length: 1822 seconds
#
# Revision: 4
# Processed by: cddbd v1.5.2PL0 Copyright (c) Steve Scherf et al.
# Submitted via: CDex 1.51
#
DISCID=a1071c0c
DTITLE=Hee Haw Gospel Quartet - The Best of The Hee Haw Gospel Quartet  Volume 2
DYEAR=1996
DGENRE=Gospel
TTITLE0=When The Roll Is Called Up Yonder
TTITLE1=Gone Home
TTITLE2=The Glory Land Way
TTITLE3=When They Ring Those Golden Bells
TTITLE4=Will You Meet Me Over Yonder
TTITLE5=When I Get To The End Of The Way
TTITLE6=No Tears In Heaven
TTITLE7=His Boundless Love
TTITLE8=There's A Hand That's A Waiting
TTITLE9=The Unclouder Day
TTITLE10=The Old Country Church
TTITLE11=Wait A Little Longer Please Jesus
EXTD=YEAR: 1996
EXTT0=
EXTT1=
EXTT2=
EXTT3=
EXTT4=
EXTT5=
EXTT6=
EXTT7=
EXTT8=
EXTT9=
EXTT10=
EXTT11=
PLAYORDER=
